<?xml version="1.0" encoding="UTF-8" standalone="no"?><svg xmlns="http://www.w3.org/2000/svg" xmlns:xlink="http://www.w3.org/1999/xlink" contentScriptType="application/ecmascript" contentStyleType="text/css" height="405px" preserveAspectRatio="none" style="width:865px;height:405px;background:#FFFFFF;" version="1.1" viewBox="0 0 865 405" width="865px" zoomAndPan="magnify"><defs><filter height="300%" id="fvmyloev21i6s" width="300%" x="-1" y="-1"><feGaussianBlur result="blurOut" stdDeviation="2.0"/><feColorMatrix in="blurOut" result="blurOut2" type="matrix" values="0 0 0 0 0 0 0 0 0 0 0 0 0 0 0 0 0 0 .4 0"/><feOffset dx="4.0" dy="4.0" in="blurOut2" result="blurOut3"/><feBlend in="SourceGraphic" in2="blurOut3" mode="normal"/></filter></defs><g><ellipse cx="372.5" cy="16" fill="#000000" filter="url(#fvmyloev21i6s)" rx="10" ry="10" style="stroke:none;stroke-width:1.0;"/><g id="Offline"><rect fill="#FEFECE" filter="url(#fvmyloev21i6s)" height="106.1406" rx="12.5" ry="12.5" style="stroke:#A80036;stroke-width:1.5;" width="215" x="265" y="87"/><line style="stroke:#A80036;stroke-width:1.5;" x1="265" x2="480" y1="113.2969" y2="113.2969"/><text fill="#000000" font-family="sans-serif" font-size="14" lengthAdjust="spacing" textLength="47" x="349" y="104.9951">Offline</text><text fill="#000000" font-family="sans-serif" font-size="12" font-weight="bold" lengthAdjust="spacing" textLength="81" x="270" y="129.4355">storage:tier</text><text fill="#000000" font-family="sans-serif" font-size="12" lengthAdjust="spacing" textLength="83" x="355" y="129.4355">field indicates</text><text fill="#000000" font-family="sans-serif" font-size="12" lengthAdjust="spacing" textLength="138" x="270" y="143.4043">a tier corresponding to</text><text fill="#000000" font-family="sans-serif" font-size="12" lengthAdjust="spacing" textLength="190" x="270" y="157.373">"offline" storage of the provider</text><text fill="#000000" font-family="sans-serif" font-size="12" font-weight="bold" lengthAdjust="spacing" textLength="28" x="270" y="171.3418">href</text><text fill="#000000" font-family="sans-serif" font-size="12" lengthAdjust="spacing" textLength="163" x="302" y="171.3418">field links to ordering url or</text><text fill="#000000" font-family="sans-serif" font-size="12" lengthAdjust="spacing" textLength="169" x="270" y="185.3105">help link about the ordering</text></g><g id="Activating"><rect fill="#FEFECE" filter="url(#fvmyloev21i6s)" height="78.2031" rx="12.5" ry="12.5" style="stroke:#A80036;stroke-width:1.5;" width="327" x="7" y="299"/><line style="stroke:#A80036;stroke-width:1.5;" x1="7" x2="334" y1="325.2969" y2="325.2969"/><text fill="#000000" font-family="sans-serif" font-size="14" lengthAdjust="spacing" textLength="71" x="135" y="316.9951">Activating</text><text fill="#000000" font-family="sans-serif" font-size="12" font-weight="bold" lengthAdjust="spacing" textLength="28" x="12" y="341.4355">href</text><text fill="#000000" font-family="sans-serif" font-size="12" lengthAdjust="spacing" textLength="275" x="44" y="341.4355">field links to order url or future accessible link</text><text fill="#000000" font-family="sans-serif" font-size="12" font-weight="bold" lengthAdjust="spacing" textLength="55" x="12" y="355.4043">order:id</text><text fill="#000000" font-family="sans-serif" font-size="12" lengthAdjust="spacing" textLength="223" x="71" y="355.4043">field MAY indicate the order identifier</text><text fill="#000000" font-family="sans-serif" font-size="12" font-weight="bold" lengthAdjust="spacing" textLength="85" x="12" y="369.373">order:status</text><text fill="#000000" font-family="sans-serif" font-size="12" lengthAdjust="spacing" textLength="107" x="101" y="369.373">field MUST state "</text><text fill="#000000" font-family="sans-serif" font-size="12" font-weight="bold" lengthAdjust="spacing" textLength="60" x="208" y="369.373">shipping</text><text fill="#000000" font-family="sans-serif" font-size="12" lengthAdjust="spacing" textLength="6" x="268" y="369.373">"</text></g><path d="M65,120 L65,160.2656 A0,0 0 0 0 65,160.2656 L230,160.2656 A0,0 0 0 0 230,160.2656 L230,144 L264.88,140 L230,136 L230,130 L220,120 L65,120 A0,0 0 0 0 65,120 " fill="#FBFB77" filter="url(#fvmyloev21i6s)" style="stroke:#A80036;stroke-width:1.0;"/><path d="M220,120 L220,130 L230,130 L220,120 " fill="#FBFB77" style="stroke:#A80036;stroke-width:1.0;"/><text fill="#000000" font-family="sans-serif" font-size="13" font-weight="bold" lengthAdjust="spacing" textLength="41" x="71" y="137.0669">Asset</text><text fill="#000000" font-family="sans-serif" font-size="13" lengthAdjust="spacing" textLength="36" x="116" y="137.0669">is not</text><text fill="#000000" font-family="sans-serif" font-size="13" lengthAdjust="spacing" textLength="144" x="71" y="152.1997">directly downloadable</text><g id="Online"><rect fill="#FEFECE" filter="url(#fvmyloev21i6s)" height="106.1406" rx="12.5" ry="12.5" style="stroke:#A80036;stroke-width:1.5;" width="302" x="369.5" y="285"/><line style="stroke:#A80036;stroke-width:1.5;" x1="369.5" x2="671.5" y1="311.2969" y2="311.2969"/><text fill="#000000" font-family="sans-serif" font-size="14" lengthAdjust="spacing" textLength="46" x="497.5" y="302.9951">Online</text><text fill="#000000" font-family="sans-serif" font-size="12" font-weight="bold" lengthAdjust="spacing" textLength="28" x="374.5" y="327.4355">href</text><text fill="#000000" font-family="sans-serif" font-size="12" lengthAdjust="spacing" textLength="171" x="406.5" y="327.4355">field links to the online asset</text><text fill="#000000" font-family="sans-serif" font-size="12" font-weight="bold" lengthAdjust="spacing" textLength="55" x="374.5" y="341.4043">order:id</text><text fill="#000000" font-family="sans-serif" font-size="12" lengthAdjust="spacing" textLength="223" x="433.5" y="341.4043">field MAY indicate the order identifier</text><text fill="#000000" font-family="sans-serif" font-size="12" font-weight="bold" lengthAdjust="spacing" textLength="85" x="374.5" y="355.373">order:status</text><text fill="#000000" font-family="sans-serif" font-size="12" lengthAdjust="spacing" textLength="107" x="463.5" y="355.373">field MUST state "</text><text fill="#000000" font-family="sans-serif" font-size="12" font-weight="bold" lengthAdjust="spacing" textLength="64" x="570.5" y="355.373">delivered</text><text fill="#000000" font-family="sans-serif" font-size="12" lengthAdjust="spacing" textLength="6" x="634.5" y="355.373">"</text><text fill="#000000" font-family="sans-serif" font-size="12" font-weight="bold" lengthAdjust="spacing" textLength="149" x="374.5" y="369.3418">order:expiration_date</text><text fill="#000000" font-family="sans-serif" font-size="12" lengthAdjust="spacing" textLength="107" x="527.5" y="369.3418">field MAY give the</text><text fill="#000000" font-family="sans-serif" font-size="12" lengthAdjust="spacing" textLength="174" x="374.5" y="383.3105">expiration of the online asset</text></g><path d="M707,325.5 L707,334 L671.65,338 L707,342 L707,350.6328 A0,0 0 0 0 707,350.6328 L856,350.6328 A0,0 0 0 0 856,350.6328 L856,335.5 L846,325.5 L707,325.5 A0,0 0 0 0 707,325.5 " fill="#FBFB77" filter="url(#fvmyloev21i6s)" style="stroke:#A80036;stroke-width:1.0;"/><path d="M846,325.5 L846,335.5 L856,335.5 L846,325.5 " fill="#FBFB77" style="stroke:#A80036;stroke-width:1.0;"/><text fill="#000000" font-family="sans-serif" font-size="13" font-weight="bold" lengthAdjust="spacing" textLength="41" x="713" y="342.5669">Asset</text><text fill="#000000" font-family="sans-serif" font-size="13" lengthAdjust="spacing" textLength="83" x="758" y="342.5669">is accessible</text><!--MD5=[4fe9250abb051bbc1c343a1a2d955e00]
link *start to Offline--><path d="M372.5,26.17 C372.5,38.17 372.5,60.22 372.5,81.66 " fill="none" id="*start-to-Offline" style="stroke:#A80036;stroke-width:1.0;"/><polygon fill="#A80036" points="372.5,86.8,376.5,77.8,372.5,81.8,368.5,77.8,372.5,86.8" style="stroke:#A80036;stroke-width:1.0;"/><!--MD5=[007f5f39560f4c030539b44fbb0fa151]
link Offline to Activating--><path d="M318.9,193.01 C285.99,224.94 244.4,265.3 213.63,295.16 " fill="none" id="Offline-to-Activating" style="stroke:#A80036;stroke-width:1.0;"/><polygon fill="#A80036" points="209.93,298.74,219.1715,295.3348,213.5152,295.2548,213.5952,289.5985,209.93,298.74" style="stroke:#A80036;stroke-width:1.0;"/><text fill="#000000" font-family="sans-serif" font-size="13" lengthAdjust="spacing" textLength="90" x="285.5" y="243.5669">Asset ordered</text><!--MD5=[dd53b0cd56236444e6f3c866edc7703c]
link Activating to Online--><path d="M334.22,338 C344.13,338 354.05,338 363.96,338 " fill="none" id="Activating-to-Online" style="stroke:#A80036;stroke-width:1.0;"/><polygon fill="#A80036" points="369.15,338,360.15,334,364.15,338,360.15,342,369.15,338" style="stroke:#A80036;stroke-width:1.0;"/><!--MD5=[98cdea43cfa3fda31961aabfc96252e3]
link Online to Offline--><path d="M481.04,284.75 C460.61,257.69 435.65,224.63 414.82,197.04 " fill="none" id="Online-to-Offline" style="stroke:#A80036;stroke-width:1.0;"/><polygon fill="#A80036" points="411.77,193.01,413.9865,202.6062,414.7769,197.0048,420.3782,197.7952,411.77,193.01" style="stroke:#A80036;stroke-width:1.0;"/><text fill="#000000" font-family="sans-serif" font-size="13" lengthAdjust="spacing" textLength="88" x="479" y="236.0669">Asset back to</text><text fill="#000000" font-family="sans-serif" font-size="13" lengthAdjust="spacing" textLength="133" x="456.5" y="251.1997">"offline" tier storage</text><!--MD5=[5508a8101886d8e66b4b4512919de1f6]
@startuml

[*] - -> Offline
Offline - -> Activating : Asset ordered
note left of Offline : **Asset** is not\ndirectly downloadable
Offline : **storage:tier** field indicates\na tier corresponding to\n"offline" storage of the provider
Offline : **href** field links to ordering url or\nhelp link about the ordering

Activating -> Online
Activating : **href** field links to order url or future accessible link
Activating : **order:id** field MAY indicate the order identifier
Activating : **order:status** field MUST state "**shipping**"


note right of Online : **Asset** is accessible

Online -> Offline : Asset back to\n"offline" tier storage
Online : **href** field links to the online asset
Online : **order:id** field MAY indicate the order identifier
Online : **order:status** field MUST state "**delivered**"
Online : **order:expiration_date** field MAY give the\nexpiration of the online asset

@enduml

PlantUML version 1.2021.7(Sun May 23 14:40:07 CEST 2021)
(GPL source distribution)
Java Runtime: Java(TM) SE Runtime Environment
JVM: Java HotSpot(TM) 64-Bit Server VM
Default Encoding: UTF-8
Language: en
Country: null
--></g></svg>