<?xml version="1.0" encoding="UTF-8" standalone="no"?><svg xmlns="http://www.w3.org/2000/svg" xmlns:xlink="http://www.w3.org/1999/xlink" contentStyleType="text/css" height="437px" preserveAspectRatio="none" style="width:970px;height:437px;background:#FFFFFF;" version="1.1" viewBox="0 0 970 437" width="970px" zoomAndPan="magnify"><defs/><g><ellipse cx="426.5" cy="16" fill="#222222" rx="10" ry="10" style="stroke:none;stroke-width:1.0;"/><g id="Offline"><rect fill="#F1F1F1" height="117.7813" rx="12.5" ry="12.5" style="stroke:#181818;stroke-width:0.5;" width="239" x="307" y="87"/><line style="stroke:#181818;stroke-width:0.5;" x1="307" x2="546" y1="113.2969" y2="113.2969"/><text fill="#000000" font-family="sans-serif" font-size="14" lengthAdjust="spacing" textLength="43" x="405" y="104.9951">Offline</text><text fill="#000000" font-family="sans-serif" font-size="14" font-weight="bold" lengthAdjust="spacing" textLength="94" x="312" y="131.292">storage:tier</text><text fill="#000000" font-family="sans-serif" font-size="14" lengthAdjust="spacing" textLength="94" x="410" y="131.292">field indicates</text><text fill="#000000" font-family="sans-serif" font-size="14" lengthAdjust="spacing" textLength="157" x="312" y="147.5889">a tier corresponding to</text><text fill="#000000" font-family="sans-serif" font-size="14" lengthAdjust="spacing" textLength="212" x="312" y="163.8857">"offline" storage of the provider</text><text fill="#000000" font-family="sans-serif" font-size="14" font-weight="bold" lengthAdjust="spacing" textLength="33" x="312" y="180.1826">href</text><text fill="#000000" font-family="sans-serif" font-size="14" lengthAdjust="spacing" textLength="182" x="349" y="180.1826">field links to ordering url or</text><text fill="#000000" font-family="sans-serif" font-size="14" lengthAdjust="spacing" textLength="190" x="312" y="196.4795">help link about the ordering</text></g><g id="Activating"><rect fill="#F1F1F1" height="85.1875" rx="12.5" ry="12.5" style="stroke:#181818;stroke-width:0.5;" width="367" x="7" y="321.5"/><line style="stroke:#181818;stroke-width:0.5;" x1="7" x2="374" y1="347.7969" y2="347.7969"/><text fill="#000000" font-family="sans-serif" font-size="14" lengthAdjust="spacing" textLength="66" x="157.5" y="339.4951">Activating</text><text fill="#000000" font-family="sans-serif" font-size="14" font-weight="bold" lengthAdjust="spacing" textLength="33" x="12" y="365.792">href</text><text fill="#000000" font-family="sans-serif" font-size="14" lengthAdjust="spacing" textLength="310" x="49" y="365.792">field links to order url or future accessible link</text><text fill="#000000" font-family="sans-serif" font-size="14" font-weight="bold" lengthAdjust="spacing" textLength="64" x="12" y="382.0889">order:id</text><text fill="#000000" font-family="sans-serif" font-size="14" lengthAdjust="spacing" textLength="251" x="80" y="382.0889">field MAY indicate the order identifier</text><text fill="#000000" font-family="sans-serif" font-size="14" font-weight="bold" lengthAdjust="spacing" textLength="99" x="12" y="398.3857">order:status</text><text fill="#000000" font-family="sans-serif" font-size="14" lengthAdjust="spacing" textLength="120" x="115" y="398.3857">field MUST state "</text><text fill="#000000" font-family="sans-serif" font-size="14" font-weight="bold" lengthAdjust="spacing" textLength="67" x="235" y="398.3857">shipping</text><text fill="#000000" font-family="sans-serif" font-size="14" lengthAdjust="spacing" textLength="5" x="302" y="398.3857">"</text></g><g id="elem_GMN7"><path d="M114.5,126 L114.5,166.2656 A0,0 0 0 0 114.5,166.2656 L272.5,166.2656 A0,0 0 0 0 272.5,166.2656 L272.5,150 L306.93,146 L272.5,142 L272.5,136 L262.5,126 L114.5,126 A0,0 0 0 0 114.5,126 " fill="#FEFFDD" style="stroke:#181818;stroke-width:0.5;"/><path d="M262.5,126 L262.5,136 L272.5,136 L262.5,126 " fill="#FEFFDD" style="stroke:#181818;stroke-width:0.5;"/><text fill="#000000" font-family="sans-serif" font-size="13" font-weight="bold" lengthAdjust="spacing" textLength="41" x="120.5" y="143.0669">Asset</text><text fill="#000000" font-family="sans-serif" font-size="13" lengthAdjust="spacing" textLength="35" x="165.5" y="143.0669">is not</text><text fill="#000000" font-family="sans-serif" font-size="13" lengthAdjust="spacing" textLength="137" x="120.5" y="158.1997">directly downloadable</text></g><g id="Online"><rect fill="#F1F1F1" height="134.0781" rx="12.5" ry="12.5" style="stroke:#181818;stroke-width:0.5;" width="373" x="409" y="297"/><line style="stroke:#181818;stroke-width:0.5;" x1="409" x2="782" y1="323.2969" y2="323.2969"/><text fill="#000000" font-family="sans-serif" font-size="14" lengthAdjust="spacing" textLength="44" x="573.5" y="314.9951">Online</text><text fill="#000000" font-family="sans-serif" font-size="14" font-weight="bold" lengthAdjust="spacing" textLength="33" x="414" y="341.292">href</text><text fill="#000000" font-family="sans-serif" font-size="14" lengthAdjust="spacing" textLength="196" x="451" y="341.292">field links to the online asset</text><text fill="#000000" font-family="sans-serif" font-size="14" font-weight="bold" lengthAdjust="spacing" textLength="94" x="414" y="357.5889">storage:tier</text><text fill="#000000" font-family="sans-serif" font-size="14" lengthAdjust="spacing" textLength="255" x="512" y="357.5889">field indicates a tier corresponding to</text><text fill="#000000" font-family="sans-serif" font-size="14" lengthAdjust="spacing" textLength="213" x="414" y="373.8857">"online" storage of the provider</text><text fill="#000000" font-family="sans-serif" font-size="14" font-weight="bold" lengthAdjust="spacing" textLength="99" x="414" y="390.1826">order:status</text><text fill="#000000" font-family="sans-serif" font-size="14" lengthAdjust="spacing" textLength="120" x="517" y="390.1826">field MUST state "</text><text fill="#000000" font-family="sans-serif" font-size="14" font-weight="bold" lengthAdjust="spacing" textLength="87" x="637" y="390.1826">succeeded</text><text fill="#000000" font-family="sans-serif" font-size="14" lengthAdjust="spacing" textLength="5" x="724" y="390.1826">"</text><text fill="#000000" font-family="sans-serif" font-size="14" font-weight="bold" lengthAdjust="spacing" textLength="171" x="414" y="406.4795">order:expiration_date</text><text fill="#000000" font-family="sans-serif" font-size="14" lengthAdjust="spacing" textLength="121" x="589" y="406.4795">field MAY give the</text><text fill="#000000" font-family="sans-serif" font-size="14" lengthAdjust="spacing" textLength="199" x="414" y="422.7764">expiration of the online asset</text></g><g id="elem_GMN12"><path d="M817.5,351.5 L817.5,360 L782.18,364 L817.5,368 L817.5,376.6328 A0,0 0 0 0 817.5,376.6328 L963.5,376.6328 A0,0 0 0 0 963.5,376.6328 L963.5,361.5 L953.5,351.5 L817.5,351.5 A0,0 0 0 0 817.5,351.5 " fill="#FEFFDD" style="stroke:#181818;stroke-width:0.5;"/><path d="M953.5,351.5 L953.5,361.5 L963.5,361.5 L953.5,351.5 " fill="#FEFFDD" style="stroke:#181818;stroke-width:0.5;"/><text fill="#000000" font-family="sans-serif" font-size="13" font-weight="bold" lengthAdjust="spacing" textLength="41" x="823.5" y="368.5669">Asset</text><text fill="#000000" font-family="sans-serif" font-size="13" lengthAdjust="spacing" textLength="80" x="868.5" y="368.5669">is accessible</text></g><!--MD5=[4fe9250abb051bbc1c343a1a2d955e00]
link *start to Offline--><g id="link_*start_Offline"><path d="M426.5,26.21 C426.5,38.09 426.5,59.84 426.5,81.51 " fill="none" id="*start-to-Offline" style="stroke:#181818;stroke-width:1.0;"/><polygon fill="#181818" points="426.5,86.71,430.5,77.71,426.5,81.71,422.5,77.71,426.5,86.71" style="stroke:#181818;stroke-width:1.0;"/></g><!--MD5=[007f5f39560f4c030539b44fbb0fa151]
link Offline to Activating--><g id="link_Offline_Activating"><path d="M362.95,205.17 C324.35,240.49 275.8,284.93 240.06,317.64 " fill="none" id="Offline-to-Activating" style="stroke:#181818;stroke-width:1.0;"/><polygon fill="#181818" points="236.2,321.17,245.5406,318.0469,239.8893,317.7953,240.141,312.144,236.2,321.17" style="stroke:#181818;stroke-width:1.0;"/><text fill="#000000" font-family="sans-serif" font-size="13" lengthAdjust="spacing" textLength="90" x="331.5" y="255.5669">Asset ordered</text></g><!--MD5=[dd53b0cd56236444e6f3c866edc7703c]
link Activating to Online--><g id="link_Activating_Online"><path d="M374.02,364 C383.84,364 393.66,364 403.49,364 " fill="none" id="Activating-to-Online" style="stroke:#181818;stroke-width:1.0;"/><polygon fill="#181818" points="408.62,364,399.62,360,403.62,364,399.62,368,408.62,364" style="stroke:#181818;stroke-width:1.0;"/></g><!--MD5=[98cdea43cfa3fda31961aabfc96252e3]
link Online to Offline--><g id="link_Online_Offline"><path d="M543.63,296.71 C521.83,268.84 496.6,236.59 475.15,209.18 " fill="none" id="Online-to-Offline" style="stroke:#181818;stroke-width:1.0;"/><polygon fill="#181818" points="472.01,205.17,474.3852,214.7281,475.0827,209.1145,480.6964,209.8119,472.01,205.17" style="stroke:#181818;stroke-width:1.0;"/><text fill="#000000" font-family="sans-serif" font-size="13" lengthAdjust="spacing" textLength="87" x="537" y="248.0669">Asset back to</text><text fill="#000000" font-family="sans-serif" font-size="13" lengthAdjust="spacing" textLength="126" x="517.5" y="263.1997">"offline" tier storage</text></g><!--MD5=[13a5879c18fb037737e6ebb7d872d37b]
@startuml

[*] - -> Offline
Offline - -> Activating : Asset ordered
note left of Offline : **Asset** is not\ndirectly downloadable
Offline : **storage:tier** field indicates\na tier corresponding to\n"offline" storage of the provider
Offline : **href** field links to ordering url or\nhelp link about the ordering

Activating -> Online
Activating : **href** field links to order url or future accessible link
Activating : **order:id** field MAY indicate the order identifier
Activating : **order:status** field MUST state "**shipping**"


note right of Online : **Asset** is accessible

Online -> Offline : Asset back to\n"offline" tier storage
Online : **href** field links to the online asset
Online : **storage:tier** field indicates a tier corresponding to\n"online" storage of the provider
Online : **order:status** field MUST state "**succeeded**"
Online : **order:expiration_date** field MAY give the\nexpiration of the online asset

@enduml

PlantUML version 1.2022.5(Sat Apr 30 12:55:52 CEST 2022)
(GPL source distribution)
Java Runtime: OpenJDK Runtime Environment
JVM: OpenJDK 64-Bit Server VM
Default Encoding: UTF-8
Language: en
Country: US
--></g></svg>