<?xml version="1.0" encoding="UTF-8" standalone="no"?><svg xmlns="http://www.w3.org/2000/svg" xmlns:xlink="http://www.w3.org/1999/xlink" contentScriptType="application/ecmascript" contentStyleType="text/css" height="472px" preserveAspectRatio="none" style="width:662px;height:472px;background:#FFFFFF;" version="1.1" viewBox="0 0 662 472" width="662px" zoomAndPan="magnify"><defs><filter height="300%" id="fgycicz202sj" width="300%" x="-1" y="-1"><feGaussianBlur result="blurOut" stdDeviation="2.0"/><feColorMatrix in="blurOut" result="blurOut2" type="matrix" values="0 0 0 0 0 0 0 0 0 0 0 0 0 0 0 0 0 0 .4 0"/><feOffset dx="4.0" dy="4.0" in="blurOut2" result="blurOut3"/><feBlend in="SourceGraphic" in2="blurOut3" mode="normal"/></filter></defs><g><line style="stroke:#A80036;stroke-width:1.0;" x1="34.5" x2="34.5" y1="40.2969" y2="199.9609"/><line style="stroke:#A80036;stroke-width:1.0;stroke-dasharray:1.0,4.0;" x1="34.5" x2="34.5" y1="199.9609" y2="240.7656"/><line style="stroke:#A80036;stroke-width:1.0;" x1="34.5" x2="34.5" y1="240.7656" y2="309.0313"/><line style="stroke:#A80036;stroke-width:1.0;stroke-dasharray:1.0,4.0;" x1="34.5" x2="34.5" y1="309.0313" y2="349.8359"/><line style="stroke:#A80036;stroke-width:1.0;" x1="34.5" x2="34.5" y1="349.8359" y2="428.1016"/><line style="stroke:#A80036;stroke-width:1.0;" x1="338.5" x2="338.5" y1="40.2969" y2="199.9609"/><line style="stroke:#A80036;stroke-width:1.0;stroke-dasharray:1.0,4.0;" x1="338.5" x2="338.5" y1="199.9609" y2="240.7656"/><line style="stroke:#A80036;stroke-width:1.0;" x1="338.5" x2="338.5" y1="240.7656" y2="309.0313"/><line style="stroke:#A80036;stroke-width:1.0;stroke-dasharray:1.0,4.0;" x1="338.5" x2="338.5" y1="309.0313" y2="349.8359"/><line style="stroke:#A80036;stroke-width:1.0;" x1="338.5" x2="338.5" y1="349.8359" y2="428.1016"/><rect fill="#FEFECE" filter="url(#fgycicz202sj)" height="30.2969" style="stroke:#A80036;stroke-width:1.5;" width="55" x="5" y="5"/><text fill="#000000" font-family="sans-serif" font-size="14" lengthAdjust="spacing" textLength="41" x="12" y="24.9951">Client</text><rect fill="#FEFECE" filter="url(#fgycicz202sj)" height="30.2969" style="stroke:#A80036;stroke-width:1.5;" width="73" x="300" y="5"/><text fill="#000000" font-family="sans-serif" font-size="14" lengthAdjust="spacing" textLength="59" x="307" y="24.9951">Provider</text><rect fill="#FEFECE" filter="url(#fgycicz202sj)" height="30.2969" style="stroke:#A80036;stroke-width:1.5;" width="55" x="5" y="428.1016"/><text fill="#000000" font-family="sans-serif" font-size="14" lengthAdjust="spacing" textLength="41" x="12" y="448.0967">Client</text><rect fill="#FEFECE" filter="url(#fgycicz202sj)" height="30.2969" style="stroke:#A80036;stroke-width:1.5;" width="73" x="300" y="428.1016"/><text fill="#000000" font-family="sans-serif" font-size="14" lengthAdjust="spacing" textLength="59" x="307" y="448.0967">Provider</text><polygon fill="#A80036" points="326.5,65.4297,336.5,69.4297,326.5,73.4297,330.5,69.4297" style="stroke:#A80036;stroke-width:1.0;"/><line style="stroke:#A80036;stroke-width:1.0;" x1="34.5" x2="332.5" y1="69.4297" y2="69.4297"/><text fill="#000000" font-family="sans-serif" font-size="13" lengthAdjust="spacing" textLength="92" x="41.5" y="64.3638">Query Product</text><polygon fill="#A80036" points="45.5,94.5625,35.5,98.5625,45.5,102.5625,41.5,98.5625" style="stroke:#A80036;stroke-width:1.0;"/><line style="stroke:#A80036;stroke-width:1.0;" x1="39.5" x2="337.5" y1="98.5625" y2="98.5625"/><text fill="#000000" font-family="sans-serif" font-size="13" lengthAdjust="spacing" textLength="186" x="51.5" y="93.4966">Stac Item describing product</text><path d="M343.5,82.4297 L343.5,122.4297 L653.5,122.4297 L653.5,92.4297 L643.5,82.4297 L343.5,82.4297 " fill="#FBFB77" filter="url(#fgycicz202sj)" style="stroke:#A80036;stroke-width:1.0;"/><path d="M643.5,82.4297 L643.5,92.4297 L653.5,92.4297 L643.5,82.4297 " fill="#FBFB77" style="stroke:#A80036;stroke-width:1.0;"/><text fill="#000000" font-family="sans-serif" font-size="13" font-weight="bold" lengthAdjust="spacing" textLength="39" x="349.5" y="99.4966">order</text><text fill="#000000" font-family="sans-serif" font-size="13" lengthAdjust="spacing" textLength="246" x="392.5" y="99.4966">link type indicates how to do ordering</text><text fill="#000000" font-family="sans-serif" font-size="13" font-weight="bold" lengthAdjust="spacing" textLength="90" x="349.5" y="114.6294">order:status</text><text fill="#000000" font-family="sans-serif" font-size="13" lengthAdjust="spacing" textLength="40" x="443.5" y="114.6294">states</text><text fill="#000000" font-family="sans-serif" font-size="13" font-weight="bold" lengthAdjust="spacing" textLength="70" x="487.5" y="114.6294">orderable</text><polygon fill="#A80036" points="326.5,148.8281,336.5,152.8281,326.5,156.8281,330.5,152.8281" style="stroke:#A80036;stroke-width:1.0;"/><line style="stroke:#A80036;stroke-width:1.0;" x1="34.5" x2="332.5" y1="152.8281" y2="152.8281"/><text fill="#000000" font-family="sans-serif" font-size="13" lengthAdjust="spacing" textLength="70" x="41.5" y="147.7622">Order Item</text><polygon fill="#A80036" points="45.5,177.9609,35.5,181.9609,45.5,185.9609,41.5,181.9609" style="stroke:#A80036;stroke-width:1.0;"/><line style="stroke:#A80036;stroke-width:1.0;" x1="39.5" x2="337.5" y1="181.9609" y2="181.9609"/><text fill="#000000" font-family="sans-serif" font-size="13" lengthAdjust="spacing" textLength="280" x="51.5" y="176.895">Link to private Stac Item as purchase order</text><path d="M343.5,165.8281 L343.5,190.8281 L559.5,190.8281 L559.5,175.8281 L549.5,165.8281 L343.5,165.8281 " fill="#FBFB77" filter="url(#fgycicz202sj)" style="stroke:#A80036;stroke-width:1.0;"/><path d="M549.5,165.8281 L549.5,175.8281 L559.5,175.8281 L549.5,165.8281 " fill="#FBFB77" style="stroke:#A80036;stroke-width:1.0;"/><text fill="#000000" font-family="sans-serif" font-size="13" font-weight="bold" lengthAdjust="spacing" textLength="90" x="349.5" y="182.895">order:status</text><text fill="#000000" font-family="sans-serif" font-size="13" lengthAdjust="spacing" textLength="40" x="443.5" y="182.895">states</text><text fill="#000000" font-family="sans-serif" font-size="13" font-weight="bold" lengthAdjust="spacing" textLength="57" x="487.5" y="182.895">ordered</text><text fill="#000000" font-family="sans-serif" font-size="11" lengthAdjust="spacing" textLength="130" x="121.5" y="224.1714">Order being processed</text><polygon fill="#A80036" points="326.5,257.8984,336.5,261.8984,326.5,265.8984,330.5,261.8984" style="stroke:#A80036;stroke-width:1.0;"/><line style="stroke:#A80036;stroke-width:1.0;" x1="34.5" x2="332.5" y1="261.8984" y2="261.8984"/><text fill="#000000" font-family="sans-serif" font-size="13" lengthAdjust="spacing" textLength="160" x="41.5" y="256.8325">Link to private Stac Item</text><polygon fill="#A80036" points="45.5,287.0313,35.5,291.0313,45.5,295.0313,41.5,291.0313" style="stroke:#A80036;stroke-width:1.0;"/><line style="stroke:#A80036;stroke-width:1.0;" x1="39.5" x2="337.5" y1="291.0313" y2="291.0313"/><text fill="#000000" font-family="sans-serif" font-size="13" lengthAdjust="spacing" textLength="119" x="51.5" y="285.9653">updated Stac Item</text><path d="M343.5,274.8984 L343.5,299.8984 L563.5,299.8984 L563.5,284.8984 L553.5,274.8984 L343.5,274.8984 " fill="#FBFB77" filter="url(#fgycicz202sj)" style="stroke:#A80036;stroke-width:1.0;"/><path d="M553.5,274.8984 L553.5,284.8984 L563.5,284.8984 L553.5,274.8984 " fill="#FBFB77" style="stroke:#A80036;stroke-width:1.0;"/><text fill="#000000" font-family="sans-serif" font-size="13" font-weight="bold" lengthAdjust="spacing" textLength="90" x="349.5" y="291.9653">order:status</text><text fill="#000000" font-family="sans-serif" font-size="13" lengthAdjust="spacing" textLength="40" x="443.5" y="291.9653">states</text><text fill="#000000" font-family="sans-serif" font-size="13" font-weight="bold" lengthAdjust="spacing" textLength="61" x="487.5" y="291.9653">shipping</text><text fill="#000000" font-family="sans-serif" font-size="11" lengthAdjust="spacing" textLength="125" x="124" y="333.2417">Order being delivered</text><polygon fill="#A80036" points="326.5,366.9688,336.5,370.9688,326.5,374.9688,330.5,370.9688" style="stroke:#A80036;stroke-width:1.0;"/><line style="stroke:#A80036;stroke-width:1.0;" x1="34.5" x2="332.5" y1="370.9688" y2="370.9688"/><text fill="#000000" font-family="sans-serif" font-size="13" lengthAdjust="spacing" textLength="160" x="41.5" y="365.9028">Link to private Stac Item</text><polygon fill="#A80036" points="45.5,396.1016,35.5,400.1016,45.5,404.1016,41.5,400.1016" style="stroke:#A80036;stroke-width:1.0;"/><line style="stroke:#A80036;stroke-width:1.0;" x1="39.5" x2="337.5" y1="400.1016" y2="400.1016"/><text fill="#000000" font-family="sans-serif" font-size="13" lengthAdjust="spacing" textLength="222" x="51.5" y="395.0356">update Stac Item as delivery form</text><path d="M343.5,383.9688 L343.5,408.9688 L569.5,408.9688 L569.5,393.9688 L559.5,383.9688 L343.5,383.9688 " fill="#FBFB77" filter="url(#fgycicz202sj)" style="stroke:#A80036;stroke-width:1.0;"/><path d="M559.5,383.9688 L559.5,393.9688 L569.5,393.9688 L559.5,383.9688 " fill="#FBFB77" style="stroke:#A80036;stroke-width:1.0;"/><text fill="#000000" font-family="sans-serif" font-size="13" font-weight="bold" lengthAdjust="spacing" textLength="90" x="349.5" y="401.0356">order:status</text><text fill="#000000" font-family="sans-serif" font-size="13" lengthAdjust="spacing" textLength="40" x="443.5" y="401.0356">states</text><text fill="#000000" font-family="sans-serif" font-size="13" font-weight="bold" lengthAdjust="spacing" textLength="67" x="487.5" y="401.0356">delivered</text><!--MD5=[a573c2c8021f9cf3c0c9f3c38c843856]
@startuml

!pragma teoz true

Client -> Provider: Query Product
Provider -> Client: Stac Item describing product
note right: **order** link type indicates how to do ordering\n**order:status** states **orderable**

Client -> Provider: Order Item
Provider -> Client: Link to private Stac Item as purchase order
note right: **order:status** states **ordered**

...Order being processed...

Client -> Provider: Link to private Stac Item
Provider -> Client: updated Stac Item
note right: **order:status** states **shipping**

...Order being delivered...

Client -> Provider: Link to private Stac Item
Provider -> Client: update Stac Item as delivery form
note right: **order:status** states **delivered**

@enduml

PlantUML version 1.2021.7(Sun May 23 14:40:07 CEST 2021)
(GPL source distribution)
Java Runtime: Java(TM) SE Runtime Environment
JVM: Java HotSpot(TM) 64-Bit Server VM
Default Encoding: UTF-8
Language: en
Country: null
--></g></svg>