<?xml version="1.0" encoding="UTF-8" standalone="no"?><svg xmlns="http://www.w3.org/2000/svg" xmlns:xlink="http://www.w3.org/1999/xlink" contentStyleType="text/css" height="444px" preserveAspectRatio="none" style="width:645px;height:444px;background:#FFFFFF;" version="1.1" viewBox="0 0 645 444" width="645px" zoomAndPan="magnify"><defs/><g><line style="stroke:#181818;stroke-width:0.5;stroke-dasharray:5.0,5.0;" x1="31.5" x2="31.5" y1="36.2969" y2="187.9609"/><line style="stroke:#A80036;stroke-width:1.0;stroke-dasharray:1.0,4.0;" x1="31.5" x2="31.5" y1="187.9609" y2="228.7656"/><line style="stroke:#181818;stroke-width:0.5;stroke-dasharray:5.0,5.0;" x1="31.5" x2="31.5" y1="228.7656" y2="293.0313"/><line style="stroke:#A80036;stroke-width:1.0;stroke-dasharray:1.0,4.0;" x1="31.5" x2="31.5" y1="293.0313" y2="333.8359"/><line style="stroke:#181818;stroke-width:0.5;stroke-dasharray:5.0,5.0;" x1="31.5" x2="31.5" y1="333.8359" y2="408.1016"/><line style="stroke:#181818;stroke-width:0.5;stroke-dasharray:5.0,5.0;" x1="331.5" x2="331.5" y1="36.2969" y2="187.9609"/><line style="stroke:#A80036;stroke-width:1.0;stroke-dasharray:1.0,4.0;" x1="331.5" x2="331.5" y1="187.9609" y2="228.7656"/><line style="stroke:#181818;stroke-width:0.5;stroke-dasharray:5.0,5.0;" x1="331.5" x2="331.5" y1="228.7656" y2="293.0313"/><line style="stroke:#A80036;stroke-width:1.0;stroke-dasharray:1.0,4.0;" x1="331.5" x2="331.5" y1="293.0313" y2="333.8359"/><line style="stroke:#181818;stroke-width:0.5;stroke-dasharray:5.0,5.0;" x1="331.5" x2="331.5" y1="333.8359" y2="408.1016"/><rect fill="#E2E2F0" height="30.2969" rx="2.5" ry="2.5" style="stroke:#181818;stroke-width:0.5;" width="53" x="5" y="5"/><text fill="#000000" font-family="sans-serif" font-size="14" lengthAdjust="spacing" textLength="39" x="12" y="24.9951">Client</text><rect fill="#E2E2F0" height="30.2969" rx="2.5" ry="2.5" style="stroke:#181818;stroke-width:0.5;" width="70" x="296.5" y="5"/><text fill="#000000" font-family="sans-serif" font-size="14" lengthAdjust="spacing" textLength="56" x="303.5" y="24.9951">Provider</text><rect fill="#E2E2F0" height="30.2969" rx="2.5" ry="2.5" style="stroke:#181818;stroke-width:0.5;" width="53" x="5" y="408.1016"/><text fill="#000000" font-family="sans-serif" font-size="14" lengthAdjust="spacing" textLength="39" x="12" y="428.0967">Client</text><rect fill="#E2E2F0" height="30.2969" rx="2.5" ry="2.5" style="stroke:#181818;stroke-width:0.5;" width="70" x="296.5" y="408.1016"/><text fill="#000000" font-family="sans-serif" font-size="14" lengthAdjust="spacing" textLength="56" x="303.5" y="428.0967">Provider</text><polygon fill="#181818" points="319.5,61.4297,329.5,65.4297,319.5,69.4297,323.5,65.4297" style="stroke:#181818;stroke-width:1.0;"/><line style="stroke:#181818;stroke-width:1.0;" x1="31.5" x2="325.5" y1="65.4297" y2="65.4297"/><text fill="#000000" font-family="sans-serif" font-size="13" lengthAdjust="spacing" textLength="91" x="38.5" y="60.3638">Query Product</text><polygon fill="#181818" points="42.5,90.5625,32.5,94.5625,42.5,98.5625,38.5,94.5625" style="stroke:#181818;stroke-width:1.0;"/><line style="stroke:#181818;stroke-width:1.0;" x1="36.5" x2="330.5" y1="94.5625" y2="94.5625"/><text fill="#000000" font-family="sans-serif" font-size="13" lengthAdjust="spacing" textLength="184" x="48.5" y="89.4966">Stac Item describing product</text><path d="M336.5,78.4297 L336.5,118.4297 L638.5,118.4297 L638.5,88.4297 L628.5,78.4297 L336.5,78.4297 " fill="#FEFFDD" style="stroke:#181818;stroke-width:0.5;"/><path d="M628.5,78.4297 L628.5,88.4297 L638.5,88.4297 L628.5,78.4297 " fill="#FEFFDD" style="stroke:#181818;stroke-width:0.5;"/><text fill="#000000" font-family="sans-serif" font-size="13" font-weight="bold" lengthAdjust="spacing" textLength="40" x="342.5" y="95.4966">order</text><text fill="#000000" font-family="sans-serif" font-size="13" lengthAdjust="spacing" textLength="237" x="386.5" y="95.4966">link type indicates how to do ordering</text><text fill="#000000" font-family="sans-serif" font-size="13" font-weight="bold" lengthAdjust="spacing" textLength="91" x="342.5" y="110.6294">order:status</text><text fill="#000000" font-family="sans-serif" font-size="13" lengthAdjust="spacing" textLength="40" x="437.5" y="110.6294">states</text><text fill="#000000" font-family="sans-serif" font-size="13" font-weight="bold" lengthAdjust="spacing" textLength="72" x="481.5" y="110.6294">orderable</text><polygon fill="#181818" points="319.5,140.8281,329.5,144.8281,319.5,148.8281,323.5,144.8281" style="stroke:#181818;stroke-width:1.0;"/><line style="stroke:#181818;stroke-width:1.0;" x1="31.5" x2="325.5" y1="144.8281" y2="144.8281"/><text fill="#000000" font-family="sans-serif" font-size="13" lengthAdjust="spacing" textLength="69" x="38.5" y="139.7622">Order Item</text><polygon fill="#181818" points="42.5,169.9609,32.5,173.9609,42.5,177.9609,38.5,173.9609" style="stroke:#181818;stroke-width:1.0;"/><line style="stroke:#181818;stroke-width:1.0;" x1="36.5" x2="330.5" y1="173.9609" y2="173.9609"/><text fill="#000000" font-family="sans-serif" font-size="13" lengthAdjust="spacing" textLength="276" x="48.5" y="168.895">Link to private Stac Item as purchase order</text><path d="M336.5,157.8281 L336.5,182.8281 L555.5,182.8281 L555.5,167.8281 L545.5,157.8281 L336.5,157.8281 " fill="#FEFFDD" style="stroke:#181818;stroke-width:0.5;"/><path d="M545.5,157.8281 L545.5,167.8281 L555.5,167.8281 L545.5,157.8281 " fill="#FEFFDD" style="stroke:#181818;stroke-width:0.5;"/><text fill="#000000" font-family="sans-serif" font-size="13" font-weight="bold" lengthAdjust="spacing" textLength="91" x="342.5" y="174.895">order:status</text><text fill="#000000" font-family="sans-serif" font-size="13" lengthAdjust="spacing" textLength="40" x="437.5" y="174.895">states</text><text fill="#000000" font-family="sans-serif" font-size="13" font-weight="bold" lengthAdjust="spacing" textLength="59" x="481.5" y="174.895">ordered</text><text fill="#000000" font-family="sans-serif" font-size="11" lengthAdjust="spacing" textLength="132" x="115.5" y="212.1714">Order being processed</text><polygon fill="#181818" points="319.5,245.8984,329.5,249.8984,319.5,253.8984,323.5,249.8984" style="stroke:#181818;stroke-width:1.0;"/><line style="stroke:#181818;stroke-width:1.0;" x1="31.5" x2="325.5" y1="249.8984" y2="249.8984"/><text fill="#000000" font-family="sans-serif" font-size="13" lengthAdjust="spacing" textLength="156" x="38.5" y="244.8325">Link to private Stac Item</text><polygon fill="#181818" points="42.5,275.0313,32.5,279.0313,42.5,283.0313,38.5,279.0313" style="stroke:#181818;stroke-width:1.0;"/><line style="stroke:#181818;stroke-width:1.0;" x1="36.5" x2="330.5" y1="279.0313" y2="279.0313"/><text fill="#000000" font-family="sans-serif" font-size="13" lengthAdjust="spacing" textLength="119" x="48.5" y="273.9653">updated Stac Item</text><path d="M336.5,262.8984 L336.5,287.8984 L560.5,287.8984 L560.5,272.8984 L550.5,262.8984 L336.5,262.8984 " fill="#FEFFDD" style="stroke:#181818;stroke-width:0.5;"/><path d="M550.5,262.8984 L550.5,272.8984 L560.5,272.8984 L550.5,262.8984 " fill="#FEFFDD" style="stroke:#181818;stroke-width:0.5;"/><text fill="#000000" font-family="sans-serif" font-size="13" font-weight="bold" lengthAdjust="spacing" textLength="91" x="342.5" y="279.9653">order:status</text><text fill="#000000" font-family="sans-serif" font-size="13" lengthAdjust="spacing" textLength="40" x="437.5" y="279.9653">states</text><text fill="#000000" font-family="sans-serif" font-size="13" font-weight="bold" lengthAdjust="spacing" textLength="64" x="481.5" y="279.9653">shipping</text><text fill="#000000" font-family="sans-serif" font-size="11" lengthAdjust="spacing" textLength="124" x="119.5" y="317.2417">Order being delivered</text><polygon fill="#181818" points="319.5,350.9688,329.5,354.9688,319.5,358.9688,323.5,354.9688" style="stroke:#181818;stroke-width:1.0;"/><line style="stroke:#181818;stroke-width:1.0;" x1="31.5" x2="325.5" y1="354.9688" y2="354.9688"/><text fill="#000000" font-family="sans-serif" font-size="13" lengthAdjust="spacing" textLength="156" x="38.5" y="349.9028">Link to private Stac Item</text><polygon fill="#181818" points="42.5,380.1016,32.5,384.1016,42.5,388.1016,38.5,384.1016" style="stroke:#181818;stroke-width:1.0;"/><line style="stroke:#181818;stroke-width:1.0;" x1="36.5" x2="330.5" y1="384.1016" y2="384.1016"/><text fill="#000000" font-family="sans-serif" font-size="13" lengthAdjust="spacing" textLength="217" x="48.5" y="379.0356">update Stac Item as delivery form</text><path d="M336.5,367.9688 L336.5,392.9688 L576.5,392.9688 L576.5,377.9688 L566.5,367.9688 L336.5,367.9688 " fill="#FEFFDD" style="stroke:#181818;stroke-width:0.5;"/><path d="M566.5,367.9688 L566.5,377.9688 L576.5,377.9688 L566.5,367.9688 " fill="#FEFFDD" style="stroke:#181818;stroke-width:0.5;"/><text fill="#000000" font-family="sans-serif" font-size="13" font-weight="bold" lengthAdjust="spacing" textLength="91" x="342.5" y="385.0356">order:status</text><text fill="#000000" font-family="sans-serif" font-size="13" lengthAdjust="spacing" textLength="40" x="437.5" y="385.0356">states</text><text fill="#000000" font-family="sans-serif" font-size="13" font-weight="bold" lengthAdjust="spacing" textLength="80" x="481.5" y="385.0356">succeeded</text><!--MD5=[d3fea3e0ebd5fbc8fa332584946a651d]
@startuml

!pragma teoz true

Client -> Provider: Query Product
Provider -> Client: Stac Item describing product
note right: **order** link type indicates how to do ordering\n**order:status** states **orderable**

Client -> Provider: Order Item
Provider -> Client: Link to private Stac Item as purchase order
note right: **order:status** states **ordered**

...Order being processed...

Client -> Provider: Link to private Stac Item
Provider -> Client: updated Stac Item
note right: **order:status** states **shipping**

...Order being delivered...

Client -> Provider: Link to private Stac Item
Provider -> Client: update Stac Item as delivery form
note right: **order:status** states **succeeded**

@enduml

PlantUML version 1.2022.5(Sat Apr 30 12:55:52 CEST 2022)
(GPL source distribution)
Java Runtime: OpenJDK Runtime Environment
JVM: OpenJDK 64-Bit Server VM
Default Encoding: UTF-8
Language: en
Country: US
--></g></svg>